<mxfile host="app.diagrams.net" modified="2023-09-10T03:22:01.129Z" agent="Mozilla/5.0 (Windows NT 10.0; Win64; x64) AppleWebKit/537.36 (KHTML, like Gecko) Chrome/116.0.0.0 Safari/537.36" etag="ZyFiCHkJMZHEBrhc96Lk" version="21.7.4" type="github">
  <diagram id="C5RBs43oDa-KdzZeNtuy" name="Page-1">
    <mxGraphModel dx="3341" dy="2786" grid="1" gridSize="10" guides="1" tooltips="1" connect="1" arrows="1" fold="1" page="1" pageScale="1" pageWidth="827" pageHeight="1169" math="0" shadow="0">
      <root>
        <mxCell id="WIyWlLk6GJQsqaUBKTNV-0" />
        <mxCell id="WIyWlLk6GJQsqaUBKTNV-1" parent="WIyWlLk6GJQsqaUBKTNV-0" />
        <mxCell id="WIyWlLk6GJQsqaUBKTNV-2" value="" style="rounded=0;html=1;jettySize=auto;orthogonalLoop=1;fontSize=11;endArrow=block;endFill=0;endSize=8;strokeWidth=1;shadow=0;labelBackgroundColor=none;edgeStyle=orthogonalEdgeStyle;" parent="WIyWlLk6GJQsqaUBKTNV-1" edge="1">
          <mxGeometry relative="1" as="geometry">
            <mxPoint x="219.9999999999999" y="120" as="sourcePoint" />
            <mxPoint x="220" y="170" as="targetPoint" />
          </mxGeometry>
        </mxCell>
        <mxCell id="vbviF0FD7I4cr9e5mkQ--0" value="input num1, num2, num3" style="rounded=0;whiteSpace=wrap;html=1;fontSize=16;" vertex="1" parent="WIyWlLk6GJQsqaUBKTNV-1">
          <mxGeometry x="125" y="80" width="190" height="40" as="geometry" />
        </mxCell>
        <mxCell id="vbviF0FD7I4cr9e5mkQ--1" value="Max = num1, Min = num1, total = 0" style="rounded=0;whiteSpace=wrap;html=1;fontSize=16;" vertex="1" parent="WIyWlLk6GJQsqaUBKTNV-1">
          <mxGeometry x="90" y="170" width="260" height="40" as="geometry" />
        </mxCell>
        <mxCell id="vbviF0FD7I4cr9e5mkQ--40" value="" style="edgeStyle=none;curved=1;rounded=0;orthogonalLoop=1;jettySize=auto;html=1;fontSize=12;startSize=8;endSize=8;" edge="1" parent="WIyWlLk6GJQsqaUBKTNV-1" source="vbviF0FD7I4cr9e5mkQ--2" target="vbviF0FD7I4cr9e5mkQ--4">
          <mxGeometry relative="1" as="geometry" />
        </mxCell>
        <mxCell id="vbviF0FD7I4cr9e5mkQ--41" value="" style="edgeStyle=none;curved=1;rounded=0;orthogonalLoop=1;jettySize=auto;html=1;fontSize=12;startSize=8;endSize=8;" edge="1" parent="WIyWlLk6GJQsqaUBKTNV-1" source="vbviF0FD7I4cr9e5mkQ--2" target="vbviF0FD7I4cr9e5mkQ--4">
          <mxGeometry relative="1" as="geometry" />
        </mxCell>
        <mxCell id="vbviF0FD7I4cr9e5mkQ--2" value="average = total / 3" style="rounded=0;whiteSpace=wrap;html=1;fontSize=16;" vertex="1" parent="WIyWlLk6GJQsqaUBKTNV-1">
          <mxGeometry x="120" y="260" width="200" height="40" as="geometry" />
        </mxCell>
        <mxCell id="vbviF0FD7I4cr9e5mkQ--3" value="" style="rounded=0;html=1;jettySize=auto;orthogonalLoop=1;fontSize=11;endArrow=block;endFill=0;endSize=8;strokeWidth=1;shadow=0;labelBackgroundColor=none;edgeStyle=orthogonalEdgeStyle;" edge="1" parent="WIyWlLk6GJQsqaUBKTNV-1">
          <mxGeometry relative="1" as="geometry">
            <mxPoint x="219.65999999999988" y="210" as="sourcePoint" />
            <mxPoint x="219.66" y="260" as="targetPoint" />
          </mxGeometry>
        </mxCell>
        <mxCell id="vbviF0FD7I4cr9e5mkQ--6" style="edgeStyle=none;curved=1;rounded=0;orthogonalLoop=1;jettySize=auto;html=1;fontSize=12;startSize=8;endSize=8;" edge="1" parent="WIyWlLk6GJQsqaUBKTNV-1" source="vbviF0FD7I4cr9e5mkQ--4">
          <mxGeometry relative="1" as="geometry">
            <mxPoint x="80" y="415" as="targetPoint" />
          </mxGeometry>
        </mxCell>
        <mxCell id="vbviF0FD7I4cr9e5mkQ--9" style="edgeStyle=none;curved=1;rounded=0;orthogonalLoop=1;jettySize=auto;html=1;fontSize=12;startSize=8;endSize=8;" edge="1" parent="WIyWlLk6GJQsqaUBKTNV-1" source="vbviF0FD7I4cr9e5mkQ--4">
          <mxGeometry relative="1" as="geometry">
            <mxPoint x="359.9999999999999" y="415" as="targetPoint" />
          </mxGeometry>
        </mxCell>
        <mxCell id="vbviF0FD7I4cr9e5mkQ--14" value="" style="edgeStyle=none;curved=1;rounded=0;orthogonalLoop=1;jettySize=auto;html=1;fontSize=12;startSize=8;endSize=8;" edge="1" parent="WIyWlLk6GJQsqaUBKTNV-1" source="vbviF0FD7I4cr9e5mkQ--4">
          <mxGeometry relative="1" as="geometry">
            <mxPoint x="220" y="600" as="targetPoint" />
          </mxGeometry>
        </mxCell>
        <mxCell id="vbviF0FD7I4cr9e5mkQ--4" value="if num2 &amp;gt; Max" style="rhombus;whiteSpace=wrap;html=1;fontSize=16;" vertex="1" parent="WIyWlLk6GJQsqaUBKTNV-1">
          <mxGeometry x="150" y="350" width="140" height="130" as="geometry" />
        </mxCell>
        <mxCell id="vbviF0FD7I4cr9e5mkQ--5" value="" style="rounded=0;html=1;jettySize=auto;orthogonalLoop=1;fontSize=11;endArrow=block;endFill=0;endSize=8;strokeWidth=1;shadow=0;labelBackgroundColor=none;edgeStyle=orthogonalEdgeStyle;" edge="1" parent="WIyWlLk6GJQsqaUBKTNV-1">
          <mxGeometry relative="1" as="geometry">
            <mxPoint x="219.65999999999988" y="300" as="sourcePoint" />
            <mxPoint x="219.66" y="350" as="targetPoint" />
            <Array as="points">
              <mxPoint x="220" y="320" />
              <mxPoint x="220" y="320" />
            </Array>
          </mxGeometry>
        </mxCell>
        <mxCell id="vbviF0FD7I4cr9e5mkQ--7" value="True" style="text;strokeColor=none;fillColor=none;html=1;align=center;verticalAlign=middle;whiteSpace=wrap;rounded=0;fontSize=16;" vertex="1" parent="WIyWlLk6GJQsqaUBKTNV-1">
          <mxGeometry x="90" y="380" width="60" height="30" as="geometry" />
        </mxCell>
        <mxCell id="vbviF0FD7I4cr9e5mkQ--8" value="False" style="text;strokeColor=none;fillColor=none;html=1;align=center;verticalAlign=middle;whiteSpace=wrap;rounded=0;fontSize=16;" vertex="1" parent="WIyWlLk6GJQsqaUBKTNV-1">
          <mxGeometry x="300" y="380" width="60" height="30" as="geometry" />
        </mxCell>
        <mxCell id="vbviF0FD7I4cr9e5mkQ--11" value="Max = num2" style="rounded=0;whiteSpace=wrap;html=1;fontSize=16;" vertex="1" parent="WIyWlLk6GJQsqaUBKTNV-1">
          <mxGeometry x="-40" y="385" width="120" height="60" as="geometry" />
        </mxCell>
        <mxCell id="vbviF0FD7I4cr9e5mkQ--12" value="Max = num1" style="rounded=0;whiteSpace=wrap;html=1;fontSize=16;" vertex="1" parent="WIyWlLk6GJQsqaUBKTNV-1">
          <mxGeometry x="360" y="385" width="120" height="60" as="geometry" />
        </mxCell>
        <mxCell id="vbviF0FD7I4cr9e5mkQ--15" style="edgeStyle=none;curved=1;rounded=0;orthogonalLoop=1;jettySize=auto;html=1;fontSize=12;startSize=8;endSize=8;" edge="1" parent="WIyWlLk6GJQsqaUBKTNV-1">
          <mxGeometry relative="1" as="geometry">
            <mxPoint x="80" y="665" as="targetPoint" />
            <mxPoint x="150" y="665" as="sourcePoint" />
          </mxGeometry>
        </mxCell>
        <mxCell id="vbviF0FD7I4cr9e5mkQ--16" style="edgeStyle=none;curved=1;rounded=0;orthogonalLoop=1;jettySize=auto;html=1;fontSize=12;startSize=8;endSize=8;" edge="1" parent="WIyWlLk6GJQsqaUBKTNV-1">
          <mxGeometry relative="1" as="geometry">
            <mxPoint x="359.9999999999999" y="665" as="targetPoint" />
            <mxPoint x="290" y="665" as="sourcePoint" />
          </mxGeometry>
        </mxCell>
        <mxCell id="vbviF0FD7I4cr9e5mkQ--17" value="True" style="text;strokeColor=none;fillColor=none;html=1;align=center;verticalAlign=middle;whiteSpace=wrap;rounded=0;fontSize=16;" vertex="1" parent="WIyWlLk6GJQsqaUBKTNV-1">
          <mxGeometry x="90" y="630" width="60" height="30" as="geometry" />
        </mxCell>
        <mxCell id="vbviF0FD7I4cr9e5mkQ--18" value="False" style="text;strokeColor=none;fillColor=none;html=1;align=center;verticalAlign=middle;whiteSpace=wrap;rounded=0;fontSize=16;" vertex="1" parent="WIyWlLk6GJQsqaUBKTNV-1">
          <mxGeometry x="300" y="630" width="60" height="30" as="geometry" />
        </mxCell>
        <mxCell id="vbviF0FD7I4cr9e5mkQ--19" value="Max = num3" style="rounded=0;whiteSpace=wrap;html=1;fontSize=16;" vertex="1" parent="WIyWlLk6GJQsqaUBKTNV-1">
          <mxGeometry x="-40" y="635" width="120" height="60" as="geometry" />
        </mxCell>
        <mxCell id="vbviF0FD7I4cr9e5mkQ--20" value="Max = num1" style="rounded=0;whiteSpace=wrap;html=1;fontSize=16;" vertex="1" parent="WIyWlLk6GJQsqaUBKTNV-1">
          <mxGeometry x="360" y="635" width="120" height="60" as="geometry" />
        </mxCell>
        <mxCell id="vbviF0FD7I4cr9e5mkQ--38" value="" style="edgeStyle=none;curved=1;rounded=0;orthogonalLoop=1;jettySize=auto;html=1;fontSize=12;startSize=8;endSize=8;" edge="1" parent="WIyWlLk6GJQsqaUBKTNV-1" source="vbviF0FD7I4cr9e5mkQ--21" target="vbviF0FD7I4cr9e5mkQ--37">
          <mxGeometry relative="1" as="geometry" />
        </mxCell>
        <mxCell id="vbviF0FD7I4cr9e5mkQ--21" value="if num3 &amp;gt; Max" style="rhombus;whiteSpace=wrap;html=1;fontSize=16;" vertex="1" parent="WIyWlLk6GJQsqaUBKTNV-1">
          <mxGeometry x="150" y="600" width="140" height="130" as="geometry" />
        </mxCell>
        <mxCell id="vbviF0FD7I4cr9e5mkQ--24" style="edgeStyle=none;curved=1;rounded=0;orthogonalLoop=1;jettySize=auto;html=1;fontSize=12;startSize=8;endSize=8;" edge="1" parent="WIyWlLk6GJQsqaUBKTNV-1">
          <mxGeometry relative="1" as="geometry">
            <mxPoint x="80" y="865" as="targetPoint" />
            <mxPoint x="150" y="865" as="sourcePoint" />
          </mxGeometry>
        </mxCell>
        <mxCell id="vbviF0FD7I4cr9e5mkQ--25" style="edgeStyle=none;curved=1;rounded=0;orthogonalLoop=1;jettySize=auto;html=1;fontSize=12;startSize=8;endSize=8;" edge="1" parent="WIyWlLk6GJQsqaUBKTNV-1">
          <mxGeometry relative="1" as="geometry">
            <mxPoint x="359.9999999999999" y="865" as="targetPoint" />
            <mxPoint x="290" y="865" as="sourcePoint" />
          </mxGeometry>
        </mxCell>
        <mxCell id="vbviF0FD7I4cr9e5mkQ--26" value="" style="edgeStyle=none;curved=1;rounded=0;orthogonalLoop=1;jettySize=auto;html=1;fontSize=12;startSize=8;endSize=8;" edge="1" parent="WIyWlLk6GJQsqaUBKTNV-1">
          <mxGeometry relative="1" as="geometry">
            <mxPoint x="220" y="930" as="sourcePoint" />
            <mxPoint x="220" y="1050" as="targetPoint" />
          </mxGeometry>
        </mxCell>
        <mxCell id="vbviF0FD7I4cr9e5mkQ--27" value="True" style="text;strokeColor=none;fillColor=none;html=1;align=center;verticalAlign=middle;whiteSpace=wrap;rounded=0;fontSize=16;" vertex="1" parent="WIyWlLk6GJQsqaUBKTNV-1">
          <mxGeometry x="90" y="830" width="60" height="30" as="geometry" />
        </mxCell>
        <mxCell id="vbviF0FD7I4cr9e5mkQ--28" value="False" style="text;strokeColor=none;fillColor=none;html=1;align=center;verticalAlign=middle;whiteSpace=wrap;rounded=0;fontSize=16;" vertex="1" parent="WIyWlLk6GJQsqaUBKTNV-1">
          <mxGeometry x="300" y="830" width="60" height="30" as="geometry" />
        </mxCell>
        <mxCell id="vbviF0FD7I4cr9e5mkQ--29" value="Min = num2" style="rounded=0;whiteSpace=wrap;html=1;fontSize=16;" vertex="1" parent="WIyWlLk6GJQsqaUBKTNV-1">
          <mxGeometry x="-40" y="835" width="120" height="60" as="geometry" />
        </mxCell>
        <mxCell id="vbviF0FD7I4cr9e5mkQ--30" value="Min = num1" style="rounded=0;whiteSpace=wrap;html=1;fontSize=16;" vertex="1" parent="WIyWlLk6GJQsqaUBKTNV-1">
          <mxGeometry x="360" y="835" width="120" height="60" as="geometry" />
        </mxCell>
        <mxCell id="vbviF0FD7I4cr9e5mkQ--31" style="edgeStyle=none;curved=1;rounded=0;orthogonalLoop=1;jettySize=auto;html=1;fontSize=12;startSize=8;endSize=8;" edge="1" parent="WIyWlLk6GJQsqaUBKTNV-1">
          <mxGeometry relative="1" as="geometry">
            <mxPoint x="80" y="1115" as="targetPoint" />
            <mxPoint x="150" y="1115" as="sourcePoint" />
          </mxGeometry>
        </mxCell>
        <mxCell id="vbviF0FD7I4cr9e5mkQ--32" style="edgeStyle=none;curved=1;rounded=0;orthogonalLoop=1;jettySize=auto;html=1;fontSize=12;startSize=8;endSize=8;" edge="1" parent="WIyWlLk6GJQsqaUBKTNV-1">
          <mxGeometry relative="1" as="geometry">
            <mxPoint x="359.9999999999999" y="1115" as="targetPoint" />
            <mxPoint x="290" y="1115" as="sourcePoint" />
          </mxGeometry>
        </mxCell>
        <mxCell id="vbviF0FD7I4cr9e5mkQ--33" value="True" style="text;strokeColor=none;fillColor=none;html=1;align=center;verticalAlign=middle;whiteSpace=wrap;rounded=0;fontSize=16;" vertex="1" parent="WIyWlLk6GJQsqaUBKTNV-1">
          <mxGeometry x="90" y="1080" width="60" height="30" as="geometry" />
        </mxCell>
        <mxCell id="vbviF0FD7I4cr9e5mkQ--34" value="False" style="text;strokeColor=none;fillColor=none;html=1;align=center;verticalAlign=middle;whiteSpace=wrap;rounded=0;fontSize=16;" vertex="1" parent="WIyWlLk6GJQsqaUBKTNV-1">
          <mxGeometry x="300" y="1080" width="60" height="30" as="geometry" />
        </mxCell>
        <mxCell id="vbviF0FD7I4cr9e5mkQ--35" value="Min = num3" style="rounded=0;whiteSpace=wrap;html=1;fontSize=16;" vertex="1" parent="WIyWlLk6GJQsqaUBKTNV-1">
          <mxGeometry x="-40" y="1085" width="120" height="60" as="geometry" />
        </mxCell>
        <mxCell id="vbviF0FD7I4cr9e5mkQ--36" value="Min = num1" style="rounded=0;whiteSpace=wrap;html=1;fontSize=16;" vertex="1" parent="WIyWlLk6GJQsqaUBKTNV-1">
          <mxGeometry x="360" y="1085" width="120" height="60" as="geometry" />
        </mxCell>
        <mxCell id="vbviF0FD7I4cr9e5mkQ--37" value="if num2 &amp;lt; Min" style="rhombus;whiteSpace=wrap;html=1;fontSize=16;" vertex="1" parent="WIyWlLk6GJQsqaUBKTNV-1">
          <mxGeometry x="150" y="800" width="140" height="130" as="geometry" />
        </mxCell>
        <mxCell id="vbviF0FD7I4cr9e5mkQ--48" value="" style="edgeStyle=none;curved=1;rounded=0;orthogonalLoop=1;jettySize=auto;html=1;fontSize=12;startSize=8;endSize=8;" edge="1" parent="WIyWlLk6GJQsqaUBKTNV-1" source="vbviF0FD7I4cr9e5mkQ--39" target="vbviF0FD7I4cr9e5mkQ--47">
          <mxGeometry relative="1" as="geometry" />
        </mxCell>
        <mxCell id="vbviF0FD7I4cr9e5mkQ--39" value="if num3 &amp;lt; Min" style="rhombus;whiteSpace=wrap;html=1;fontSize=16;" vertex="1" parent="WIyWlLk6GJQsqaUBKTNV-1">
          <mxGeometry x="150" y="1050" width="140" height="130" as="geometry" />
        </mxCell>
        <mxCell id="vbviF0FD7I4cr9e5mkQ--45" value="" style="edgeStyle=none;curved=1;rounded=0;orthogonalLoop=1;jettySize=auto;html=1;fontSize=12;startSize=8;endSize=8;" edge="1" parent="WIyWlLk6GJQsqaUBKTNV-1" source="vbviF0FD7I4cr9e5mkQ--43" target="vbviF0FD7I4cr9e5mkQ--0">
          <mxGeometry relative="1" as="geometry" />
        </mxCell>
        <mxCell id="vbviF0FD7I4cr9e5mkQ--43" value="START" style="whiteSpace=wrap;html=1;fontSize=16;rounded=0;" vertex="1" parent="WIyWlLk6GJQsqaUBKTNV-1">
          <mxGeometry x="160" y="-90" width="120" height="60" as="geometry" />
        </mxCell>
        <mxCell id="vbviF0FD7I4cr9e5mkQ--50" value="" style="edgeStyle=none;curved=1;rounded=0;orthogonalLoop=1;jettySize=auto;html=1;fontSize=12;startSize=8;endSize=8;" edge="1" parent="WIyWlLk6GJQsqaUBKTNV-1" source="vbviF0FD7I4cr9e5mkQ--47" target="vbviF0FD7I4cr9e5mkQ--49">
          <mxGeometry relative="1" as="geometry" />
        </mxCell>
        <mxCell id="vbviF0FD7I4cr9e5mkQ--47" value="Print Max, Min, Average" style="shape=parallelogram;perimeter=parallelogramPerimeter;whiteSpace=wrap;html=1;fixedSize=1;fontSize=16;" vertex="1" parent="WIyWlLk6GJQsqaUBKTNV-1">
          <mxGeometry x="105" y="1280" width="230" height="60" as="geometry" />
        </mxCell>
        <mxCell id="vbviF0FD7I4cr9e5mkQ--49" value="END" style="ellipse;whiteSpace=wrap;html=1;fontSize=16;" vertex="1" parent="WIyWlLk6GJQsqaUBKTNV-1">
          <mxGeometry x="180" y="1450" width="80" height="80" as="geometry" />
        </mxCell>
      </root>
    </mxGraphModel>
  </diagram>
</mxfile>
